<mxfile host="app.diagrams.net" agent="Mozilla/5.0 (Windows NT 10.0; Win64; x64) AppleWebKit/537.36 (KHTML, like Gecko) Chrome/136.0.0.0 Safari/537.36" version="27.0.9">
  <diagram name="Page-1" id="hf9PuyQoq8rMTz2XfQ_1">
    <mxGraphModel dx="2660" dy="958" grid="1" gridSize="10" guides="1" tooltips="1" connect="1" arrows="1" fold="1" page="1" pageScale="1" pageWidth="827" pageHeight="1169" math="0" shadow="0">
      <root>
        <mxCell id="0" />
        <mxCell id="1" parent="0" />
        <mxCell id="SqELXL14-94DxPeY-0I6-1" value="Customer" style="shape=umlLifeline;perimeter=lifelinePerimeter;whiteSpace=wrap;container=1;dropTarget=0;collapsible=0;recursiveResize=0;outlineConnect=0;portConstraint=eastwest;newEdgeStyle={&quot;edgeStyle&quot;:&quot;elbowEdgeStyle&quot;,&quot;elbow&quot;:&quot;vertical&quot;,&quot;curved&quot;:0,&quot;rounded&quot;:0};size=65;" parent="1" vertex="1">
          <mxGeometry x="20" y="20" width="150" height="754" as="geometry" />
        </mxCell>
        <mxCell id="SqELXL14-94DxPeY-0I6-2" value="SalesUI" style="shape=umlLifeline;perimeter=lifelinePerimeter;whiteSpace=wrap;container=1;dropTarget=0;collapsible=0;recursiveResize=0;outlineConnect=0;portConstraint=eastwest;newEdgeStyle={&quot;edgeStyle&quot;:&quot;elbowEdgeStyle&quot;,&quot;elbow&quot;:&quot;vertical&quot;,&quot;curved&quot;:0,&quot;rounded&quot;:0};size=65;" parent="1" vertex="1">
          <mxGeometry x="299" y="20" width="150" height="754" as="geometry" />
        </mxCell>
        <mxCell id="ViUcDQ5YMikYH1KApkvH-1" value="" style="html=1;points=[[0,0,0,0,5],[0,1,0,0,-5],[1,0,0,0,5],[1,1,0,0,-5]];perimeter=orthogonalPerimeter;outlineConnect=0;targetShapes=umlLifeline;portConstraint=eastwest;newEdgeStyle={&quot;curved&quot;:0,&quot;rounded&quot;:0};" vertex="1" parent="SqELXL14-94DxPeY-0I6-2">
          <mxGeometry x="70" y="120" width="10" height="30" as="geometry" />
        </mxCell>
        <mxCell id="ViUcDQ5YMikYH1KApkvH-10" style="edgeStyle=elbowEdgeStyle;rounded=0;orthogonalLoop=1;jettySize=auto;html=1;elbow=vertical;curved=0;" edge="1" parent="1" source="SqELXL14-94DxPeY-0I6-3" target="SqELXL14-94DxPeY-0I6-2">
          <mxGeometry relative="1" as="geometry">
            <Array as="points">
              <mxPoint x="500" y="660" />
            </Array>
          </mxGeometry>
        </mxCell>
        <mxCell id="SqELXL14-94DxPeY-0I6-3" value="SalesController" style="shape=umlLifeline;perimeter=lifelinePerimeter;whiteSpace=wrap;container=1;dropTarget=0;collapsible=0;recursiveResize=0;outlineConnect=0;portConstraint=eastwest;newEdgeStyle={&quot;edgeStyle&quot;:&quot;elbowEdgeStyle&quot;,&quot;elbow&quot;:&quot;vertical&quot;,&quot;curved&quot;:0,&quot;rounded&quot;:0};size=65;" parent="1" vertex="1">
          <mxGeometry x="549" y="20" width="150" height="754" as="geometry" />
        </mxCell>
        <mxCell id="ViUcDQ5YMikYH1KApkvH-2" value="" style="html=1;points=[[0,0,0,0,5],[0,1,0,0,-5],[1,0,0,0,5],[1,1,0,0,-5]];perimeter=orthogonalPerimeter;outlineConnect=0;targetShapes=umlLifeline;portConstraint=eastwest;newEdgeStyle={&quot;curved&quot;:0,&quot;rounded&quot;:0};" vertex="1" parent="SqELXL14-94DxPeY-0I6-3">
          <mxGeometry x="70" y="180" width="10" height="30" as="geometry" />
        </mxCell>
        <mxCell id="ViUcDQ5YMikYH1KApkvH-12" value="" style="html=1;points=[[0,0,0,0,5],[0,1,0,0,-5],[1,0,0,0,5],[1,1,0,0,-5]];perimeter=orthogonalPerimeter;outlineConnect=0;targetShapes=umlLifeline;portConstraint=eastwest;newEdgeStyle={&quot;curved&quot;:0,&quot;rounded&quot;:0};" vertex="1" parent="SqELXL14-94DxPeY-0I6-3">
          <mxGeometry x="70" y="600" width="10" height="30" as="geometry" />
        </mxCell>
        <mxCell id="ViUcDQ5YMikYH1KApkvH-8" style="edgeStyle=elbowEdgeStyle;rounded=0;orthogonalLoop=1;jettySize=auto;html=1;elbow=vertical;curved=0;" edge="1" parent="1" source="SqELXL14-94DxPeY-0I6-4" target="SqELXL14-94DxPeY-0I6-3">
          <mxGeometry relative="1" as="geometry">
            <Array as="points">
              <mxPoint x="800" y="610" />
            </Array>
          </mxGeometry>
        </mxCell>
        <mxCell id="SqELXL14-94DxPeY-0I6-4" value="OrderService" style="shape=umlLifeline;perimeter=lifelinePerimeter;whiteSpace=wrap;container=1;dropTarget=0;collapsible=0;recursiveResize=0;outlineConnect=0;portConstraint=eastwest;newEdgeStyle={&quot;edgeStyle&quot;:&quot;elbowEdgeStyle&quot;,&quot;elbow&quot;:&quot;vertical&quot;,&quot;curved&quot;:0,&quot;rounded&quot;:0};size=65;" parent="1" vertex="1">
          <mxGeometry x="873" y="20" width="150" height="754" as="geometry" />
        </mxCell>
        <mxCell id="ViUcDQ5YMikYH1KApkvH-3" value="" style="html=1;points=[[0,0,0,0,5],[0,1,0,0,-5],[1,0,0,0,5],[1,1,0,0,-5]];perimeter=orthogonalPerimeter;outlineConnect=0;targetShapes=umlLifeline;portConstraint=eastwest;newEdgeStyle={&quot;curved&quot;:0,&quot;rounded&quot;:0};" vertex="1" parent="SqELXL14-94DxPeY-0I6-4">
          <mxGeometry x="70" y="230" width="10" height="30" as="geometry" />
        </mxCell>
        <mxCell id="SqELXL14-94DxPeY-0I6-5" value="InventoryService" style="shape=umlLifeline;perimeter=lifelinePerimeter;whiteSpace=wrap;container=1;dropTarget=0;collapsible=0;recursiveResize=0;outlineConnect=0;portConstraint=eastwest;newEdgeStyle={&quot;edgeStyle&quot;:&quot;elbowEdgeStyle&quot;,&quot;elbow&quot;:&quot;vertical&quot;,&quot;curved&quot;:0,&quot;rounded&quot;:0};size=65;" parent="1" vertex="1">
          <mxGeometry x="1128" y="20" width="150" height="754" as="geometry" />
        </mxCell>
        <mxCell id="ViUcDQ5YMikYH1KApkvH-4" value="" style="html=1;points=[[0,0,0,0,5],[0,1,0,0,-5],[1,0,0,0,5],[1,1,0,0,-5]];perimeter=orthogonalPerimeter;outlineConnect=0;targetShapes=umlLifeline;portConstraint=eastwest;newEdgeStyle={&quot;curved&quot;:0,&quot;rounded&quot;:0};" vertex="1" parent="SqELXL14-94DxPeY-0I6-5">
          <mxGeometry x="72" y="280" width="10" height="40" as="geometry" />
        </mxCell>
        <mxCell id="SqELXL14-94DxPeY-0I6-6" value="PaymentGateway" style="shape=umlLifeline;perimeter=lifelinePerimeter;whiteSpace=wrap;container=1;dropTarget=0;collapsible=0;recursiveResize=0;outlineConnect=0;portConstraint=eastwest;newEdgeStyle={&quot;edgeStyle&quot;:&quot;elbowEdgeStyle&quot;,&quot;elbow&quot;:&quot;vertical&quot;,&quot;curved&quot;:0,&quot;rounded&quot;:0};size=65;" parent="1" vertex="1">
          <mxGeometry x="1328" y="20" width="150" height="754" as="geometry" />
        </mxCell>
        <mxCell id="ViUcDQ5YMikYH1KApkvH-6" value="" style="html=1;points=[[0,0,0,0,5],[0,1,0,0,-5],[1,0,0,0,5],[1,1,0,0,-5]];perimeter=orthogonalPerimeter;outlineConnect=0;targetShapes=umlLifeline;portConstraint=eastwest;newEdgeStyle={&quot;curved&quot;:0,&quot;rounded&quot;:0};" vertex="1" parent="SqELXL14-94DxPeY-0I6-6">
          <mxGeometry x="70" y="390" width="10" height="30" as="geometry" />
        </mxCell>
        <mxCell id="SqELXL14-94DxPeY-0I6-7" value="InvoiceService" style="shape=umlLifeline;perimeter=lifelinePerimeter;whiteSpace=wrap;container=1;dropTarget=0;collapsible=0;recursiveResize=0;outlineConnect=0;portConstraint=eastwest;newEdgeStyle={&quot;edgeStyle&quot;:&quot;elbowEdgeStyle&quot;,&quot;elbow&quot;:&quot;vertical&quot;,&quot;curved&quot;:0,&quot;rounded&quot;:0};size=65;" parent="1" vertex="1">
          <mxGeometry x="1528" y="20" width="150" height="754" as="geometry" />
        </mxCell>
        <mxCell id="ViUcDQ5YMikYH1KApkvH-7" value="" style="html=1;points=[[0,0,0,0,5],[0,1,0,0,-5],[1,0,0,0,5],[1,1,0,0,-5]];perimeter=orthogonalPerimeter;outlineConnect=0;targetShapes=umlLifeline;portConstraint=eastwest;newEdgeStyle={&quot;curved&quot;:0,&quot;rounded&quot;:0};" vertex="1" parent="SqELXL14-94DxPeY-0I6-7">
          <mxGeometry x="70" y="500" width="10" height="30" as="geometry" />
        </mxCell>
        <mxCell id="SqELXL14-94DxPeY-0I6-8" value="placeOrder(product, quantity)" style="verticalAlign=bottom;edgeStyle=elbowEdgeStyle;elbow=vertical;curved=0;rounded=0;endArrow=block;" parent="1" source="SqELXL14-94DxPeY-0I6-1" target="SqELXL14-94DxPeY-0I6-2" edge="1">
          <mxGeometry relative="1" as="geometry">
            <Array as="points">
              <mxPoint x="243" y="129" />
            </Array>
          </mxGeometry>
        </mxCell>
        <mxCell id="SqELXL14-94DxPeY-0I6-9" value="validateOrder(data)" style="verticalAlign=bottom;edgeStyle=elbowEdgeStyle;elbow=vertical;curved=0;rounded=0;endArrow=block;" parent="1" source="SqELXL14-94DxPeY-0I6-2" target="SqELXL14-94DxPeY-0I6-3" edge="1">
          <mxGeometry relative="1" as="geometry">
            <Array as="points">
              <mxPoint x="508" y="183" />
            </Array>
          </mxGeometry>
        </mxCell>
        <mxCell id="SqELXL14-94DxPeY-0I6-10" value="createOrder(customer, product, qty)" style="verticalAlign=bottom;edgeStyle=elbowEdgeStyle;elbow=vertical;curved=0;rounded=0;endArrow=block;" parent="1" source="SqELXL14-94DxPeY-0I6-3" target="SqELXL14-94DxPeY-0I6-4" edge="1">
          <mxGeometry relative="1" as="geometry">
            <Array as="points">
              <mxPoint x="795" y="237" />
            </Array>
          </mxGeometry>
        </mxCell>
        <mxCell id="SqELXL14-94DxPeY-0I6-11" value="reserveStock(product, qty)" style="verticalAlign=bottom;edgeStyle=elbowEdgeStyle;elbow=vertical;curved=0;rounded=0;endArrow=block;" parent="1" source="SqELXL14-94DxPeY-0I6-4" target="SqELXL14-94DxPeY-0I6-5" edge="1">
          <mxGeometry relative="1" as="geometry">
            <Array as="points">
              <mxPoint x="1084" y="291" />
            </Array>
          </mxGeometry>
        </mxCell>
        <mxCell id="SqELXL14-94DxPeY-0I6-12" value="stockConfirmed" style="verticalAlign=bottom;edgeStyle=elbowEdgeStyle;elbow=vertical;curved=0;rounded=0;dashed=1;dashPattern=2 3;endArrow=block;" parent="1" source="SqELXL14-94DxPeY-0I6-5" target="SqELXL14-94DxPeY-0I6-4" edge="1">
          <mxGeometry relative="1" as="geometry">
            <Array as="points">
              <mxPoint x="1087" y="345" />
            </Array>
          </mxGeometry>
        </mxCell>
        <mxCell id="SqELXL14-94DxPeY-0I6-13" value="initiatePayment(details)" style="verticalAlign=bottom;edgeStyle=elbowEdgeStyle;elbow=vertical;curved=0;rounded=0;endArrow=block;" parent="1" source="SqELXL14-94DxPeY-0I6-4" target="SqELXL14-94DxPeY-0I6-6" edge="1">
          <mxGeometry relative="1" as="geometry">
            <Array as="points">
              <mxPoint x="1184" y="399" />
            </Array>
          </mxGeometry>
        </mxCell>
        <mxCell id="SqELXL14-94DxPeY-0I6-14" value="paymentStatus(success)" style="verticalAlign=bottom;edgeStyle=elbowEdgeStyle;elbow=vertical;curved=0;rounded=0;dashed=1;dashPattern=2 3;endArrow=block;" parent="1" source="SqELXL14-94DxPeY-0I6-6" target="SqELXL14-94DxPeY-0I6-4" edge="1">
          <mxGeometry relative="1" as="geometry">
            <Array as="points">
              <mxPoint x="1187" y="453" />
            </Array>
          </mxGeometry>
        </mxCell>
        <mxCell id="SqELXL14-94DxPeY-0I6-15" value="generateInvoice(orderId)" style="verticalAlign=bottom;edgeStyle=elbowEdgeStyle;elbow=vertical;curved=0;rounded=0;endArrow=block;" parent="1" source="SqELXL14-94DxPeY-0I6-4" target="SqELXL14-94DxPeY-0I6-7" edge="1">
          <mxGeometry relative="1" as="geometry">
            <Array as="points">
              <mxPoint x="1284" y="507" />
            </Array>
          </mxGeometry>
        </mxCell>
        <mxCell id="SqELXL14-94DxPeY-0I6-16" value="invoiceDetails" style="verticalAlign=bottom;edgeStyle=elbowEdgeStyle;elbow=vertical;curved=0;rounded=0;dashed=1;dashPattern=2 3;endArrow=block;" parent="1" source="SqELXL14-94DxPeY-0I6-7" target="SqELXL14-94DxPeY-0I6-4" edge="1">
          <mxGeometry relative="1" as="geometry">
            <Array as="points">
              <mxPoint x="1287" y="561" />
            </Array>
          </mxGeometry>
        </mxCell>
        <mxCell id="ViUcDQ5YMikYH1KApkvH-9" value="ShowOrderConfirmation()" style="text;html=1;align=center;verticalAlign=middle;resizable=0;points=[];autosize=1;strokeColor=none;fillColor=none;" vertex="1" parent="1">
          <mxGeometry x="690" y="585" width="160" height="30" as="geometry" />
        </mxCell>
        <mxCell id="ViUcDQ5YMikYH1KApkvH-11" value="ShowSale()" style="text;html=1;align=center;verticalAlign=middle;resizable=0;points=[];autosize=1;strokeColor=none;fillColor=none;" vertex="1" parent="1">
          <mxGeometry x="449" y="630" width="90" height="30" as="geometry" />
        </mxCell>
      </root>
    </mxGraphModel>
  </diagram>
</mxfile>
